<?xml version="1.0" encoding="UTF-8" standalone="no"?>
<!-- Created with Inkscape (http://www.inkscape.org/) -->

<svg
   xmlns:dc="http://purl.org/dc/elements/1.1/"
   xmlns:cc="http://creativecommons.org/ns#"
   xmlns:rdf="http://www.w3.org/1999/02/22-rdf-syntax-ns#"
   xmlns:svg="http://www.w3.org/2000/svg"
   xmlns="http://www.w3.org/2000/svg"
   xmlns:sodipodi="http://sodipodi.sourceforge.net/DTD/sodipodi-0.dtd"
   xmlns:inkscape="http://www.inkscape.org/namespaces/inkscape"
   width="1200mm"
   height="600mm"
   viewBox="0 0 4251.9685 2125.9842"
   id="svg3679"
   version="1.1"
   inkscape:version="0.92.1 r15371"
   sodipodi:docname="fosdem-linbin medium.svg">
  <defs
     id="defs3681" />
  <sodipodi:namedview
     id="base"
     pagecolor="#ffffff"
     bordercolor="#666666"
     borderopacity="1.0"
     inkscape:pageopacity="0.0"
     inkscape:pageshadow="2"
     inkscape:zoom="0.35355339"
     inkscape:cx="1036.8726"
     inkscape:cy="1311.9596"
     inkscape:document-units="mm"
     inkscape:current-layer="layer1"
     showgrid="false"
     inkscape:window-width="1920"
     inkscape:window-height="1015"
     inkscape:window-x="0"
     inkscape:window-y="0"
     inkscape:window-maximized="1" />
  <metadata
     id="metadata3684">
    <rdf:RDF>
      <cc:Work
         rdf:about="">
        <dc:format>image/svg+xml</dc:format>
        <dc:type
           rdf:resource="http://purl.org/dc/dcmitype/StillImage" />
        <dc:title />
      </cc:Work>
    </rdf:RDF>
  </metadata>
  <g
     inkscape:label="Layer 1"
     inkscape:groupmode="layer"
     id="layer1"
     transform="translate(0,1073.622)">
    <path
       sodipodi:nodetypes="ccccccccccccccccccccccccccccccccccccc"
       inkscape:connector-curvature="0"
       id="path3007"
       d="m 226.7564,-647.59127 163.87153,10e-5 9e-5,9.96543 h 16.60247 v -9.96543 l 33.20522,-10e-5 v 9.96563 l 16.60256,-10e-5 v -9.96553 h 71.41003 l -10e-5,-332.18494 h -72.95109 l 1.54116,-9.9657 h -16.60256 l -10e-5,9.9657 -33.20512,-10e-5 v -9.9655 h -16.60256 l 9e-5,9.9655 H 226.7563 v -9.9655 l -16.60256,-10e-5 v 9.9657 l -68.56443,-10e-5 v -9.9655 h -16.60266 v 9.9655 H 48.05593 v 332.18515 h 76.93072 l 1e-4,9.96543 16.60247,10e-5 9e-5,-9.96553 68.56443,-1e-4 v 9.96553 h 16.60256 l 1e-4,-9.96553"
       style="fill:none;stroke:#00ff00;stroke-width:0.93731141;stroke-linecap:round" />
    <path
       sodipodi:nodetypes="ccccccccccccccccccccc"
       inkscape:connector-curvature="0"
       id="path3009"
       d="m 1039.3036,-979.77631 h -69.56471 v -9.9656 h -16.60247 v 9.9656 H 919.9312 v -9.9656 l -16.60247,10e-5 v 9.9655 H 852.3817 v 332.18508 l 50.94703,-3e-5 v 9.96554 l 16.60247,-2e-5 v -9.96547 l 33.20522,-5e-5 v 9.96567 l 16.60247,-1.4e-4 9e-5,-9.96539 69.56472,-9e-5 z"
       style="fill:none;stroke:#00ff00;stroke-width:0.93731141;stroke-linecap:round" />
    <path
       sodipodi:nodetypes="ccccssccssccccccccccccccccccccssccssccccccccccccccccc"
       inkscape:connector-curvature="0"
       id="path3011"
       d="m 586.27986,-989.72861 v 9.9609 h -49.84762 v 56.543 c 6.11615,0.2878 10.95253,4.5485 10.95253,9.81438 v 13.35944 c 0,5.26594 -4.83619,9.52678 -10.95253,9.81441 v 153.10546 c 6.11634,0.28763 10.95253,4.54847 10.95253,9.8145 v 13.35938 c 0,5.26584 -4.83638,9.52668 -10.95253,9.8144 v 56.54289 h 49.84762 v 9.96094 h 16.60462 v -9.96094 h 33.20922 v 9.96094 h 16.60472 v -9.96094 h 66.38916 v 9.96094 h 16.60462 v -9.96094 h 33.20935 v 9.96094 h 16.60471 v -9.96094 h 49.81397 v -56.54289 c 6.11606,-0.28772 10.95253,-4.54856 10.95253,-9.8144 v -13.35938 c 0,-5.26603 -4.83628,-9.52687 -10.95253,-9.8145 v -153.10546 c 6.11616,-0.28763 10.95253,-4.54847 10.95253,-9.81441 v -13.35944 c 0,-5.26588 -4.83647,-9.52658 -10.95253,-9.81438 v -56.543 h -49.81397 v -9.9609 h -16.60471 v 9.9609 H 735.6922 v -9.9609 h -16.60462 v 9.9609 h -66.38916 v -9.9609 H 636.0937 v 9.9609 h -33.20922 v -9.9609 z"
       style="fill:none;stroke:#00ff00;stroke-width:0.93731141;stroke-linecap:round" />
    <path
       inkscape:connector-curvature="0"
       id="path3013"
       d="m 1221.014,-976.58804 c -5.2642,0 -9.5231,4.8383 -9.8106,10.9571 h -30.7493 l -132.8079,166.08401 36.2842,36.29885 8.158,-8.18991 11.7437,11.74767 -8.1581,8.18996 23.4865,23.46677 8.1594,-8.15943 11.7431,11.74833 -8.1594,8.15939 49.5505,49.57035 30.7493,-10e-6 c 0.305,-6.09893 4.5584,-10.8984 9.8106,-10.89841 l 13.3539,1e-5 c 5.2596,-1e-5 9.5174,4.81531 9.8105,10.92772 l 19.2988,2e-5 v -11.6016 l 16.6047,2e-5 v 11.60153 l 68.7514,5e-5 v -11.6016 l 16.5753,-2e-5 v 11.6016 l 49.1504,1e-5 c 0.2929,-6.11267 4.5503,-10.92778 9.8105,-10.92773 l 13.354,-2e-5 c 5.2596,0 9.5174,4.81529 9.8105,10.92771 l 81.5882,2e-5 v -11.60159 l 16.6047,2e-5 v 11.6016 l 33.1508,-4e-5 v -11.60153 l 16.6338,-3e-5 v 11.60159 l 22.4031,-3e-5 c 0.293,-6.11266 4.5503,-10.92771 9.8106,-10.92772 l 13.354,-3e-5 c 5.2597,2e-5 9.5173,4.81536 9.8104,10.92776 h 27.6452 v -49.80472 l -11.6263,2e-5 v -16.6113 l 11.6263,-2e-5 v -33.22266 l -11.6263,3e-5 v -16.61137 l 11.6263,4e-5 v -66.47462 l -11.6263,-3e-5 v -16.6113 l 11.5969,0.0293 v -33.22266 h -11.5969 v -16.6113 l 11.5969,-10e-6 v -49.80479 l -27.6158,10e-5 c -0.2877,-6.1186 -4.5467,-10.9571 -9.8104,-10.9571 h -13.354 c -5.2639,0 -9.5231,4.8382 -9.8106,10.9571 l -170.3806,-10e-5 c -0.2809,-6.1263 -4.5421,-10.957 -9.8105,-10.957 h -13.354 c -5.2686,0 -9.5297,4.8307 -9.8105,10.957 h -170.3806 c -0.2877,-6.1185 -4.5468,-10.957 -9.8105,-10.957 z"
       style="fill:none;stroke:#00ff00;stroke-width:0.93731141;stroke-linecap:round"
       sodipodi:nodetypes="ccccccccccccccssccccccccccssccccccccccssccccccccccccccccccccssccssccscc" />
    <path
       sodipodi:nodetypes="ccccccccccccccssccccccccccssccccccccccssccccccccccccccccccccssccssccscc"
       style="fill:none;stroke:#00ff00;stroke-width:0.93731141;stroke-linecap:round"
       d="m 1850.7342,-980.54942 c -5.2642,0 -9.5231,4.8383 -9.8106,10.9571 h -30.7493 l -132.8079,166.08401 36.2842,36.29884 8.158,-8.1899 11.7437,11.74767 -8.1581,8.18995 23.4865,23.46678 8.1594,-8.15944 11.7431,11.74834 -8.1594,8.15939 49.5505,49.57035 30.7493,-10e-6 c 0.305,-6.09893 4.5584,-10.8984 9.8106,-10.89841 l 13.3539,10e-6 c 5.2596,-10e-6 9.5174,4.81531 9.8105,10.92772 l 19.2988,2e-5 v -11.6016 l 16.6047,10e-6 v 11.60154 l 68.7514,5e-5 v -11.6016 l 16.5753,-2e-5 v 11.6016 l 49.1504,10e-6 c 0.2929,-6.11267 4.5503,-10.92779 9.8105,-10.92773 l 13.3541,-3e-5 c 5.2595,0 9.5173,4.81529 9.8104,10.92772 l 81.5882,2e-5 v -11.60159 l 16.6047,2e-5 v 11.6016 l 33.1508,-4e-5 v -11.60154 l 16.6338,-2e-5 v 11.60159 l 22.4031,-3e-5 c 0.293,-6.11266 4.5504,-10.92772 9.8106,-10.92773 l 13.354,-3e-5 c 5.2597,2e-5 9.5173,4.81537 9.8104,10.92777 h 27.6452 v -49.80473 l -11.6263,3e-5 v -16.6113 l 11.6263,-3e-5 v -33.22265 l -11.6263,3e-5 v -16.61137 l 11.6263,4e-5 v -66.47462 l -11.6263,-4e-5 v -16.6113 l 11.5969,0.0293 v -33.22265 h -11.5969 v -16.6113 l 11.5969,-1e-5 v -49.80479 l -27.6158,10e-5 c -0.2876,-6.1186 -4.5467,-10.9571 -9.8104,-10.9571 h -13.354 c -5.2639,0 -9.5231,4.8382 -9.8106,10.9571 l -170.3806,-10e-5 c -0.2809,-6.1263 -4.5421,-10.957 -9.8104,-10.957 h -13.3541 c -5.2686,0 -9.5297,4.8307 -9.8105,10.957 h -170.3806 c -0.2877,-6.1185 -4.5468,-10.957 -9.8105,-10.957 z"
       id="path3360"
       inkscape:connector-curvature="0" />
    <path
       sodipodi:nodetypes="ccccccccccccccccccccccccccccccccccccc"
       inkscape:connector-curvature="0"
       id="path3007-3"
       d="m 210.15395,-295.47498 163.8715,9e-5 1e-4,9.96544 h 16.60246 v -9.96544 l 33.20522,-9e-5 v 9.96562 l 16.60256,-9e-5 v -9.96553 h 71.41003 l -1e-4,-332.18491 h -72.95109 l 1.54116,-9.9657 h -16.60256 l -1e-4,9.9657 -33.20512,-10e-5 v -9.9655 h -16.60256 l 1e-4,9.9655 h -163.8717 v -9.9655 l -16.6026,-10e-5 v 9.9657 l -68.5644,-10e-5 v -9.9655 h -16.6027 v 9.9655 h -76.9307 v 332.18511 h 76.9307 l 10e-5,9.96544 16.6025,9e-5 1e-4,-9.96553 68.5644,-1e-4 v 9.96554 h 16.6026 l 1e-4,-9.96554"
       style="fill:none;stroke:#00ff00;stroke-width:0.93731147;stroke-linecap:round" />
    <path
       sodipodi:nodetypes="ccccccccccccccccccccc"
       inkscape:connector-curvature="0"
       id="path3009-6"
       d="m 1022.7011,-627.65999 h -69.56468 v -9.9656 h -16.60247 v 9.9656 h -33.20522 v -9.9656 l -16.60248,10e-5 v 9.9655 h -50.94703 v 332.18504 l 50.94703,-3e-5 v 9.96555 l 16.60248,-2e-5 v -9.96548 l 33.20522,-5e-5 v 9.96568 l 16.60247,-1.4e-4 9e-5,-9.96539 69.56469,-10e-5 z"
       style="fill:none;stroke:#00ff00;stroke-width:0.93731147;stroke-linecap:round" />
    <path
       sodipodi:nodetypes="ccccssccssccccccccccccccccccccssccssccccccccccccccccc"
       inkscape:connector-curvature="0"
       id="path3011-7"
       d="m 569.67738,-637.61229 v 9.9609 h -49.84762 v 56.543 c 6.11615,0.2878 10.95254,4.5485 10.95254,9.81434 v 13.35944 c 0,5.26594 -4.8362,9.52678 -10.95254,9.81441 v 153.10546 c 6.11634,0.28763 10.95254,4.54847 10.95254,9.8145 v 13.35938 c 0,5.26584 -4.83639,9.52669 -10.95254,9.8144 v 56.54289 h 49.84762 v 9.96094 H 586.282 v -9.96094 h 33.20922 v 9.96094 h 16.60472 v -9.96094 h 66.38917 v 9.96094 h 16.60461 v -9.96094 h 33.20936 v 9.96094 h 16.6047 v -9.96094 h 49.81397 v -56.54289 c 6.11606,-0.28771 10.95253,-4.54856 10.95253,-9.8144 v -13.35938 c 0,-5.26603 -4.83628,-9.52687 -10.95253,-9.8145 V -538.1202 c 6.11617,-0.28763 10.95253,-4.54847 10.95253,-9.81441 v -13.35944 c 0,-5.26584 -4.83647,-9.52654 -10.95253,-9.81434 v -56.543 h -49.81397 v -9.9609 h -16.6047 v 9.9609 h -33.20936 v -9.9609 h -16.60461 v 9.9609 h -66.38917 v -9.9609 h -16.60472 v 9.9609 H 586.282 v -9.9609 z"
       style="fill:none;stroke:#00ff00;stroke-width:0.93731147;stroke-linecap:round" />
    <path
       inkscape:connector-curvature="0"
       id="path3013-5"
       d="m 1204.4115,-624.47179 c -5.2641,0 -9.5231,4.8383 -9.8105,10.9571 h -30.7494 l -132.8078,166.08404 36.2841,36.29885 8.1581,-8.18991 11.7437,11.74767 -8.1582,8.18996 23.4866,23.46677 8.1593,-8.15943 11.7431,11.74833 -8.1593,8.15939 49.5504,49.57035 30.7494,-10e-6 c 0.3049,-6.09893 4.5584,-10.8984 9.8105,-10.89841 l 13.354,1e-5 c 5.2595,-1e-5 9.5174,4.81531 9.8104,10.92772 l 19.2988,2e-5 v -11.6016 l 16.6048,2e-5 v 11.60154 l 68.7513,4e-5 v -11.6016 l 16.5753,-2e-5 v 11.6016 l 49.1504,1e-5 c 0.2929,-6.11267 4.5504,-10.92778 9.8106,-10.92773 l 13.3539,-2e-5 c 5.2597,0 9.5174,4.81529 9.8106,10.92772 l 81.5882,1e-5 v -11.60159 l 16.6047,2e-5 v 11.6016 l 33.1507,-3e-5 v -11.60154 l 16.6338,-3e-5 v 11.60159 l 22.4032,-2e-5 c 0.2929,-6.11266 4.5502,-10.92772 9.8105,-10.92773 l 13.3541,-3e-5 c 5.2596,2e-5 9.5173,4.81536 9.8103,10.92776 h 27.6452 v -49.80472 l -11.6263,2e-5 v -16.6113 l 11.6263,-2e-5 v -33.22265 l -11.6263,2e-5 v -16.61137 l 11.6263,4e-5 v -66.47462 l -11.6263,-3e-5 v -16.6113 l 11.597,0.0292 v -33.22261 h -11.597 v -16.6113 l 11.597,-10e-6 v -49.80487 l -27.6159,1e-4 c -0.2877,-6.1186 -4.5466,-10.9571 -9.8103,-10.9571 h -13.3541 c -5.2638,0 -9.5231,4.8382 -9.8105,10.9571 l -170.3806,-1e-4 c -0.281,-6.1263 -4.5422,-10.957 -9.8106,-10.957 h -13.3539 c -5.2687,0 -9.5298,4.8307 -9.8106,10.957 h -170.3806 c -0.2877,-6.1185 -4.5467,-10.957 -9.8104,-10.957 z"
       style="fill:none;stroke:#00ff00;stroke-width:0.93731147;stroke-linecap:round"
       sodipodi:nodetypes="ccccccccccccccssccccccccccssccccccccccssccccccccccccccccccccssccssccscc" />
    <path
       sodipodi:nodetypes="ccccccccccccccssccccccccccssccccccccccssccccccccccccccccccccssccssccscc"
       style="fill:none;stroke:#00ff00;stroke-width:0.93731147;stroke-linecap:round"
       d="m 1834.1318,-628.43319 c -5.2643,0 -9.5232,4.8383 -9.8107,10.9571 h -30.7492 l -132.808,166.08406 36.2843,36.29884 8.1579,-8.1899 11.7438,11.74767 -8.1581,8.18995 23.4864,23.46678 8.1594,-8.15944 11.7432,11.74834 -8.1595,8.15939 49.5506,49.57035 30.7492,-1e-5 c 0.3051,-6.09892 4.5584,-10.8984 9.8107,-10.89841 l 13.3538,10e-6 c 5.2597,-10e-6 9.5174,4.81531 9.8106,10.92773 l 19.2988,1e-5 v -11.6016 l 16.6046,10e-6 v 11.60154 l 68.7515,5e-5 v -11.6016 l 16.5753,-1e-5 v 11.6016 l 49.1504,1e-5 c 0.2928,-6.11268 4.5502,-10.9278 9.8104,-10.92774 l 13.3542,-3e-5 c 5.2594,0 9.5173,4.81529 9.8103,10.92772 l 81.5882,3e-5 v -11.60159 l 16.6047,1e-5 v 11.6016 l 33.1509,-4e-5 v -11.60154 l 16.6338,-2e-5 v 11.6016 l 22.403,-4e-5 c 0.2931,-6.11266 4.5505,-10.92772 9.8107,-10.92773 l 13.3539,-3e-5 c 5.2598,2e-5 9.5173,4.81537 9.8105,10.92778 h 27.6452 v -49.80474 l -11.6263,3e-5 v -16.6113 l 11.6263,-3e-5 v -33.22265 l -11.6263,4e-5 v -16.61138 l 11.6263,4e-5 v -66.47462 l -11.6263,-4e-5 v -16.6113 l 11.5968,0.0293 v -33.2226 h -11.5968 v -16.6114 h 11.5968 v -49.8048 l -27.6157,10e-5 c -0.2876,-6.1186 -4.5467,-10.9571 -9.8105,-10.9571 h -13.3539 c -5.264,0 -9.5232,4.8382 -9.8107,10.9571 l -170.3806,-10e-5 c -0.2808,-6.1263 -4.5421,-10.957 -9.8103,-10.957 h -13.3542 c -5.2685,0 -9.5297,4.8307 -9.8104,10.957 h -170.3806 c -0.2877,-6.1185 -4.5468,-10.957 -9.8106,-10.957 z"
       id="path3360-3"
       inkscape:connector-curvature="0" />
  </g>
</svg>
